<?xml version="1.0" encoding="UTF-8" standalone="no"?>
<svg version="1.1" width="800" height="800" viewBox="0 0 800 800" xmlns="http://www.w3.org/2000/svg" xmlns:svg="http://www.w3.org/2000/svg">
<path style="fill:#000000;stroke-width:1.5663" d="M 274.73558,781.15787 C 267.12562,779.67336 234.55684,766.12039 216.21762,756.80659 120.01736,707.95004 44.025567,615.25543 14.295247,510.50216 3.9894496,474.19016 0.03748252,443.66212 4.443356e-4,400.07777 -0.02987832,364.30716 1.4810122,348.36197 7.8435619,317.3097 37.468233,172.72734 149.6754,53.226065 292.58449,14.059031 374.25425,-8.3241614 467.67612,-3.7886896 544.61417,26.294637 c 93.69725,36.63629 169.08316,105.355003 214.17881,195.236623 20.60589,41.07027 33.07496,82.24604 39.36461,129.9911 2.4695,18.74608 2.45274,77.44871 -0.0278,97.11082 -7.83541,62.10956 -28.36784,118.7161 -61.26559,168.90516 -47.49583,72.46002 -111.91755,125.30384 -190.37506,156.16076 -24.20736,9.52064 -32.87358,10.08022 -40.35233,2.60566 -7.01364,-7.01364 -5.71048,-52.84694 -6.01949,-75.91558 -1.01577,-75.8303 -1.40769,-79.80019 -9.72108,-98.46832 -2.05853,-4.62253 -6.62444,-12.03017 -10.14646,-16.4614 l -6.4037,-8.0568 12.82698,-1.79532 c 41.00485,-5.73923 72.9479,-16.97778 100.50936,-35.36234 33.51777,-22.35763 54.17057,-57.05495 64.31903,-108.058 3.33955,-16.78359 4.78135,-63.89871 2.41749,-78.99903 -4.03016,-25.74468 -16.76711,-54.29087 -32.73179,-73.35894 l -6.28953,-7.51214 3.85033,-13.26001 c 6.83594,-23.54215 5.01353,-56.55552 -4.60214,-83.36897 -3.05139,-8.5088 -4.03461,-9.74125 -8.73894,-10.954 -14.555,-3.75218 -55.8616,11.3865 -91.67406,33.59807 -8.92118,5.53311 -13.69638,7.58222 -16.52275,7.09021 -2.18638,-0.38061 -11.12132,-2.19812 -19.85544,-4.03891 -49.95995,-10.52947 -104.66975,-10.52947 -154.6297,0 -8.73413,1.84079 -17.71109,3.66446 -19.94883,4.05261 -2.93292,0.50874 -7.17059,-1.28258 -15.1813,-6.41732 -31.9368,-20.47096 -77.15516,-37.02234 -93.77624,-34.32513 -5.04758,0.81912 -5.40922,1.35729 -9.14746,13.61315 -6.06218,19.87475 -7.59776,30.03524 -7.4777,49.4778 0.0891,14.43614 0.89047,20.63566 4.03591,31.22427 l 3.92469,13.21177 -6.02907,7.15016 c -15.81967,18.76137 -28.94765,48.15901 -32.9643,73.81738 -2.36724,15.1219 -0.91977,62.24696 2.426,78.98275 8.02433,40.13827 23.58907,72.06843 45.28721,92.90405 16.30908,15.66076 42.6101,30.86034 68.33123,39.48919 11.179,3.75028 41.07942,10.09065 55.16428,11.69752 l 8.9583,1.02203 -6.09971,7.71669 c -7.92398,10.02458 -13.64983,22.29063 -16.69033,35.75442 -2.38018,10.53973 -2.60622,10.87329 -8.96514,13.22835 -14.02289,5.1935 -21.35491,6.34417 -40.98207,6.43163 -20.10721,0.0896 -20.49456,0.0242 -30.96215,-5.22837 -13.55565,-6.80214 -25.27835,-18.11359 -36.00956,-34.74627 -15.54395,-24.09212 -39.15791,-41.06557 -60.05649,-43.16793 -12.02351,-1.20956 -20.98745,1.37922 -20.98745,6.06112 0,3.56662 12.58463,16.30599 23.6727,23.96378 3.77862,2.60963 10.60682,9.658 15.1738,15.66304 7.44829,9.7936 11.20169,16.70339 24.94777,45.92736 7.5358,16.021 26.47379,30.76968 47.41326,36.92489 4.73806,1.39275 18.48238,3.32288 30.54292,4.28917 17.9156,1.43537 24.72278,1.34457 37.19969,-0.4962 l 15.27147,-2.25304 0.38595,27.48146 c 0.77594,55.24798 0.43163,58.20846 -7.36373,63.31615 -4.12216,2.70096 -12.50727,4.09582 -18.08307,3.00811 z" />
</svg>
