<?xml version="1.0" encoding="UTF-8" standalone="no"?>
<svg version="1.1" width="512" height="512" viewBox="0 0 512 512" xmlns="http://www.w3.org/2000/svg" xmlns:svg="http://www.w3.org/2000/svg">
<path style="fill:#29a9ea;fill-opacity:1;stroke-width:1.00131" d="M 239.53917,511.7524 C 200.76931,507.89043 176.19491,501.45001 146.42567,487.34934 104.78394,467.62509 68.836647,436.55138 43.269303,398.1785 -2.5971932,329.33954 -12.460066,246.01833 15.886917,166.85301 23.51104,145.56092 40.316294,115.94582 56.233045,95.752955 70.623485,77.496448 96.222909,54.519515 117.89089,40.411548 175.51105,2.8951972 249.25037,-9.3673875 317.13375,7.2781724 c 35.03959,8.5919946 67.38928,24.3310056 97.11837,47.2507566 10.87251,8.382195 34.62048,32.166002 43.27642,43.341725 44.93932,58.021346 62.98758,130.051126 50.71892,202.416856 -3.94442,23.26585 -11.26557,45.57907 -22.42599,68.34942 -20.2105,41.23504 -49.96959,75.1508 -88.31645,100.65231 -33.00004,21.94575 -66.91239,34.75089 -107.40422,40.55534 -10.29805,1.4762 -42.64266,2.69665 -50.56163,1.90782 z m 91.96901,-127.96992 c 4.58949,-1.91797 9.23274,-7.93181 11.65307,-15.09278 5.7551,-17.02743 32.04268,-180.37751 32.04316,-199.11498 2.5e-4,-9.97396 -5.17662,-15.72904 -14.15527,-15.73629 -8.92451,-0.007 -26.43434,6.17058 -77.95689,27.50457 -67.00825,27.74614 -175.72601,75.06119 -180.21967,78.43336 -4.873376,3.65713 -5.938815,5.23802 -5.97548,8.86628 -0.05537,5.48257 4.65518,8.44774 22.64833,14.25646 34.49543,11.13613 47.02496,12.89572 58.72847,8.24749 3.28089,-1.30304 29.6092,-18.21012 60.39494,-38.7834 30.01814,-20.06032 56.38309,-37.39415 58.58878,-38.51961 5.34765,-2.72868 8.26653,-2.26038 8.68528,1.39349 0.27498,2.3994 -1.14354,4.32089 -9.5116,12.88413 -5.40912,5.53528 -23.70241,23.12467 -40.65175,39.08751 -32.06037,30.19438 -37.30291,35.85025 -38.33606,41.35845 -0.83698,4.46232 1.78258,9.70648 6.85624,13.72564 5.13746,4.06972 80.3012,54.87748 85.469,57.77373 8.39773,4.70641 16.18444,6.03742 21.73945,3.71595 z"/>
</svg>
