<svg width="16" height="16" fill="currentColor" class="bi bi-square" viewBox="0 0 16 16" xmlns="http://www.w3.org/2000/svg">
<path d="M14 1a1 1 0 0 1 1 1v12a1 1 0 0 1-1 1H2a1 1 0 0 1-1-1V2a1 1 0 0 1 1-1h12zM2 0a2 2 0 0 0-2 2v12a2 2 0 0 0 2 2h12a2 2 0 0 0 2-2V2a2 2 0 0 0-2-2H2z"/>
<path d="m 6.9197717,10.678501 h 3.1872533 v 0.789845 H 5.8929742 V 10.678501 Q 6.7618029,9.7632114 7.4122628,9.0616438 8.0627228,8.3600763 8.3089683,8.0720155 8.7735826,7.5051861 8.9361975,7.1567254 q 0.162615,-0.3531068 0.162615,-0.7201521 0,-0.5807678 -0.3438145,-0.9106439 -0.3391684,-0.3298761 -0.9338746,-0.3298761 -0.422799,0 -0.8874133,0.1533227 Q 6.4690959,5.5026987 5.9487279,5.8139902 V 4.8661772 Q 6.4272806,4.6385162 6.8872487,4.5223626 7.351863,4.4062091 7.8025388,4.4062091 q 1.0175052,0 1.6354421,0.5435986 0.6225831,0.5389526 0.6225831,1.4170735 0,0.4460297 -0.2090764,0.8920594 Q 9.6470573,7.7049702 9.1824431,8.2439228 8.9222591,8.545922 8.4251219,9.0802284 7.9326308,9.6145348 6.9197717,10.678501 Z"/>
</svg>
