<svg width="16" height="16" fill="currentColor" class="bi bi-square" viewBox="0 0 16 16" xmlns="http://www.w3.org/2000/svg">
<path d="M14 1a1 1 0 0 1 1 1v12a1 1 0 0 1-1 1H2a1 1 0 0 1-1-1V2a1 1 0 0 1 1-1h12zM2 0a2 2 0 0 0-2 2v12a2 2 0 0 0 2 2h12a2 2 0 0 0 2-2V2a2 2 0 0 0-2-2H2z"/>
<path d="m 8.7805523,7.7514315 q 0.682983,0.1811996 1.0453821,0.6458138 0.3623996,0.4599681 0.3623996,1.1522433 0,0.9571054 -0.6458143,1.5053504 -0.6411677,0.543598 -1.7794726,0.543598 -0.4785526,0 -0.9756899,-0.08828 Q 6.29022,11.421884 5.8116673,11.254623 v -0.933875 q 0.4739065,0.246246 0.9338746,0.367046 0.4599681,0.120799 0.9152901,0.120799 0.7712596,0 1.1847663,-0.34846 0.4135067,-0.348461 0.4135067,-1.0035672 0,-0.6039985 -0.4135067,-0.9571054 Q 8.4320916,8.1417075 7.725878,8.1417075 H 7.010372 V 7.3704478 h 0.715506 q 0.6458138,0 1.0082129,-0.2834147 Q 9.09649,6.8036184 9.09649,6.2971889 9.09649,5.7628825 8.7573216,5.4794678 8.4227994,5.191407 7.8002163,5.191407 q -0.4135067,0 -0.8548902,0.092923 -0.4413836,0.092923 -0.9245824,0.2787686 V 4.6989159 q 0.5621832,-0.1486766 0.9989206,-0.2230148 0.4413836,-0.074338 0.780552,-0.074338 1.012859,0 1.6168576,0.5110756 0.6086451,0.5064296 0.6086451,1.3473814 0,0.5714755 -0.3205843,0.9524592 Q 9.389197,7.5934627 8.7805523,7.7514315 Z"/>
</svg>
