<svg width="16" height="16" fill="currentColor" class="bi bi-square" viewBox="0 0 16 16" xmlns="http://www.w3.org/2000/svg">
<path d="M14 1a1 1 0 0 1 1 1v12a1 1 0 0 1-1 1H2a1 1 0 0 1-1-1V2a1 1 0 0 1 1-1h12zM2 0a2 2 0 0 0-2 2v12a2 2 0 0 0 2 2h12a2 2 0 0 0 2-2V2a2 2 0 0 0-2-2H2z"/>
<path d="M 8.5412758,5.3818988 6.3529427,9.0477053 H 8.5412758 Z M 8.3879531,4.5270086 H 9.4751504 V 9.0477053 H 10.399733 V 9.8096726 H 9.4751504 V 11.463699 H 8.5412758 V 9.8096726 H 5.6002676 V 8.9222594 Z"/>
</svg>
