<svg width="16" height="16" fill="currentColor" class="bi bi-square" viewBox="0 0 16 16" version="1.1" xmlns="http://www.w3.org/2000/svg">
<path d="M14 1a1 1 0 0 1 1 1v12a1 1 0 0 1-1 1H2a1 1 0 0 1-1-1V2a1 1 0 0 1 1-1h12zM2 0a2 2 0 0 0-2 2v12a2 2 0 0 0 2 2h12a2 2 0 0 0 2-2V2a2 2 0 0 0-2-2H2z"/>
<path d="M 6.1461889,4.5270086 H 9.6586726 V 5.3168528 H 7.0010791 v 1.7051343 q 0.1997842,-0.074338 0.3995683,-0.1068612 0.2044302,-0.037169 0.4088605,-0.037169 1.0779051,0 1.7097805,0.6365215 0.6318756,0.6365216 0.6318756,1.7237189 0,1.0964899 -0.6643986,1.7283649 -0.6597523,0.631875 -1.8073495,0.631875 -0.5528909,0 -1.012859,-0.07434 -0.455322,-0.07434 -0.8177211,-0.223015 v -0.952459 q 0.4274451,0.232307 0.8595364,0.348461 0.4320912,0.111507 0.882767,0.111507 0.7759058,0 1.1940586,-0.40886 0.422799,-0.4088608 0.422799,-1.1615359 0,-0.7433828 -0.4367374,-1.1568895 -0.4320912,-0.4135067 -1.207997,-0.4135067 -0.3763376,0 -0.7340905,0.088277 -0.357753,0.083631 -0.682983,0.2555379 z"/>
</svg>
