<svg width="16" height="16" fill="currentColor" class="bi bi-square" viewBox="0 0 16 16" xmlns="http://www.w3.org/2000/svg">
<path d="M14 1a1 1 0 0 1 1 1v12a1 1 0 0 1-1 1H2a1 1 0 0 1-1-1V2a1 1 0 0 1 1-1h12zM2 0a2 2 0 0 0-2 2v12a2 2 0 0 0 2 2h12a2 2 0 0 0 2-2V2a2 2 0 0 0-2-2H2z"/>
<path d="M 9.7399804,4.6803313 V 5.5445138 Q 9.4472734,5.3726066 9.1173973,5.2843298 8.7875212,5.191407 8.4297682,5.191407 q -0.8920594,0 -1.3520275,0.6736907 Q 6.6177726,6.5341422 6.6177726,7.8397082 6.8407875,7.375094 7.2357096,7.1288484 7.6306317,6.8779567 8.1417073,6.8779567 q 1.0035668,0 1.5518116,0.617937 0.5528911,0.6132908 0.5528911,1.7423034 0,1.1243669 -0.5668295,1.7423039 -0.5668294,0.617936 -1.5936269,0.617936 -1.207997,0 -1.7701802,-0.864182 -0.5621833,-0.8688287 -0.5621833,-2.7319318 0,-1.7562419 0.6736907,-2.6761781 0.6783368,-0.9245823 1.9606721,-0.9245823 0.3438145,0 0.6876291,0.074338 0.3438145,0.069692 0.6643984,0.2044302 z M 8.0673691,7.6120472 q -0.5993524,0 -0.943167,0.4320913 -0.3438145,0.4320912 -0.3438145,1.1940586 0,0.7619669 0.3438145,1.1940589 0.3438146,0.432091 0.943167,0.432091 0.6225831,0 0.9385207,-0.408861 0.3159377,-0.413506 0.3159377,-1.2172889 0,-0.8084288 -0.3159377,-1.2172893 Q 8.6899522,7.6120472 8.0673691,7.6120472 Z"/>
</svg>
