<svg width="16" height="16" fill="currentColor" class="bi bi-square" viewBox="0 0 16 16" xmlns="http://www.w3.org/2000/svg">
<path d="M14 1a1 1 0 0 1 1 1v12a1 1 0 0 1-1 1H2a1 1 0 0 1-1-1V2a1 1 0 0 1 1-1h12zM2 0a2 2 0 0 0-2 2v12a2 2 0 0 0 2 2h12a2 2 0 0 0 2-2V2a2 2 0 0 0-2-2H2z"/>
<path d="m 7.9976769,8.1695843 q -0.6272292,0 -0.9710437,0.3531069 -0.3391685,0.3484606 -0.3391685,0.9896283 0,0.6411675 0.3438146,0.9989205 0.3484607,0.353107 0.9663976,0.353107 0.6318754,0 0.9710438,-0.348461 0.3438146,-0.353107 0.3438146,-1.0035665 0,-0.6365215 -0.3484607,-0.9896283 Q 8.62026,8.1695843 7.9976769,8.1695843 Z M 7.1799559,7.7793084 Q 6.5806035,7.6259857 6.2414351,7.2078328 5.9069128,6.78968 5.9069128,6.1996199 q 0,-0.8270133 0.5621833,-1.3102122 0.5621832,-0.4878449 1.5285808,-0.4878449 0.9710438,0 1.533227,0.4878449 0.5621831,0.4831989 0.5621831,1.3102122 0,0.5900601 -0.3391682,1.0082129 -0.3345223,0.4181529 -0.9338747,0.5714756 0.6969214,0.1533227 1.0639667,0.6179369 0.3716912,0.4646143 0.3716912,1.2033509 0,0.9385208 -0.5993522,1.4681808 -0.5993524,0.52966 -1.6586729,0.52966 -1.0593205,0 -1.6586728,-0.525014 -0.5947063,-0.52966 -0.5947063,-1.4635345 0,-0.7433828 0.3670453,-1.2079971 0.3716914,-0.4692603 1.0686128,-0.622583 z M 6.8407875,6.2878966 q 0,0.5575371 0.2973531,0.8502441 0.2973531,0.292707 0.8595363,0.292707 0.5668294,0 0.8641825,-0.292707 0.2973531,-0.292707 0.2973531,-0.8502441 0,-0.5668294 -0.2973531,-0.8641825 Q 8.5691525,5.126361 7.9976769,5.126361 q -0.5621832,0 -0.8595363,0.3019993 -0.2973531,0.2973531 -0.2973531,0.8595363 z"/>
</svg>
