<svg width="16" height="16" fill="currentColor" class="bi bi-square" viewBox="0 0 16 16" xmlns="http://www.w3.org/2000/svg">
<path d="M14 1a1 1 0 0 1 1 1v12a1 1 0 0 1-1 1H2a1 1 0 0 1-1-1V2a1 1 0 0 1 1-1h12zM2 0a2 2 0 0 0-2 2v12a2 2 0 0 0 2 2h12a2 2 0 0 0 2-2V2a2 2 0 0 0-2-2H2z"/>
<path d="m 7.9326309,8.387953 q 0.5993524,0 0.9385208,-0.4320912 0.3438146,-0.4320913 0.3438146,-1.1940586 0,-0.7619674 -0.3438146,-1.1940587 -0.3391684,-0.4320912 -0.9385208,-0.4320912 -0.6225831,0 -0.9385207,0.4135067 -0.3159377,0.4088605 -0.3159377,1.2126432 0,0.8084287 0.3112915,1.2172893 0.3159377,0.4088605 0.9431669,0.4088605 z m -1.6726113,2.931716 v -0.864183 q 0.292707,0.171908 0.6225831,0.264831 0.3298761,0.08828 0.6876291,0.08828 0.8920594,0 1.3473813,-0.669044 Q 9.3775812,9.4658581 9.3775812,8.160292 9.1592125,8.6249063 8.7642904,8.875798 8.3693683,9.1220435 7.8582927,9.1220435 q -1.0035668,0 -1.5564578,-0.6179369 -0.5482448,-0.617937 -0.5482448,-1.7515957 0,-1.1197204 0.5621833,-1.7330112 0.5668293,-0.6179369 1.598273,-0.6179369 1.207997,0 1.7701802,0.8688286 0.5621834,0.8688287 0.5621834,2.7319318 0,1.7515957 -0.6783369,2.6761778 -0.6736907,0.919936 -1.9606721,0.919936 -0.3391684,0 -0.682983,-0.07434 -0.3438145,-0.06969 -0.6643984,-0.20443 z"/>
</svg>
