<svg width="16" height="16" fill="currentColor" class="bi bi-square" viewBox="0 0 16 16" xmlns="http://www.w3.org/2000/svg">
<path d="M14 1a1 1 0 0 1 1 1v12a1 1 0 0 1-1 1H2a1 1 0 0 1-1-1V2a1 1 0 0 1 1-1h12zM2 0a2 2 0 0 0-2 2v12a2 2 0 0 0 2 2h12a2 2 0 0 0 2-2V2a2 2 0 0 0-2-2H2z"/>
<path d="M 5.3284681,5.3586683 4.3388397,8.9083211 H 6.3180964 Z M 4.7616387,4.5316549 H 5.8999436 L 8.0232307,11.468346 H 7.0521869 L 6.5411113,9.6609962 H 4.1111787 L 3.6093954,11.468346 H 2.6383516 Z"/>
<path d="m 9.277689,4.5316549 h 4.083959 v 0.7898442 h -3.140792 v 2.0443027 h 2.848085 V 8.1556461 H 10.220856 V 11.468346 H 9.277689 Z"/>
</svg>
