<svg width="16" height="16" fill="currentColor" class="bi bi-square" viewBox="0 0 16 16" xmlns="http://www.w3.org/2000/svg">
<path d="M 2 0 A 2 2 0 0 0 0 2 L 0 14 A 2 2 0 0 0 2 16 L 14 16 A 2 2 0 0 0 16 14 L 16 7.4414062 A 0.5 0.5 0 0 0 16 7.1113281 L 16 2 A 2 2 0 0 0 14 0 L 2 0 z M 2 1 L 14 1 A 1 1 0 0 1 15 2 L 15 5.7460938 L 12.755859 2.7675781 A 0.50005 0.50005 0 0 0 12.353516 2.5703125 A 0.50005 0.50005 0 0 0 11.955078 2.7714844 L 8.8398438 6.9570312 L 6.2792969 3.9511719 A 0.50005 0.50005 0 0 0 5.4882812 3.9902344 L 1 10.427734 L 1 2 A 1 1 0 0 1 2 1 z M 12.359375 3.9042969 L 15 7.4042969 L 15 14 A 1 1 0 0 1 14 15 L 2 15 A 1 1 0 0 1 1 14 L 1 12.175781 L 5.9375 5.09375 L 8.4863281 8.0839844 A 0.50005 0.50005 0 0 0 9.2675781 8.0585938 L 12.359375 3.9042969 z"/>
</svg>
