<svg width="16" height="16" fill="currentColor" class="bi bi-square" viewBox="0 0 16 16" xmlns="http://www.w3.org/2000/svg">
<path d="M 2 0 A 2 2 0 0 0 0 2 L 0 14 A 2 2 0 0 0 2 16 L 14 16 A 2 2 0 0 0 16 14 L 16 2 A 2 2 0 0 0 14 0 L 2 0 z M 2 1 L 14 1 A 1 1 0 0 1 15 2 L 15 10.619141 C 14.484209 10.028431 14.004048 9.6107178 13.533203 9.3261719 C 12.791872 8.8781628 12.061783 8.7903365 11.40625 8.8808594 C 10.095184 9.0619051 9.0690964 9.7539486 7.5097656 9.5976562 C 6.1008266 9.4564378 5.1479236 9.0959777 4.0117188 9.3867188 C 3.0956587 9.6211273 2.2078084 10.261915 1 11.634766 L 1 2 A 1 1 0 0 1 2 1 z M 11.902344 9.84375 C 12.25489 9.8423402 12.5964 9.9282905 13.015625 10.181641 C 13.549575 10.504322 14.202418 11.135889 15 12.240234 L 15 14 A 1 1 0 0 1 14 15 L 2 15 A 1 1 0 0 1 1 14 L 1 13.199219 C 2.5764797 11.240035 3.498196 10.550345 4.2597656 10.355469 C 5.0456051 10.154382 5.8961385 10.442 7.4101562 10.59375 C 9.2929519 10.782463 10.556377 10.007333 11.542969 9.8710938 C 11.666293 9.854064 11.784828 9.8442199 11.902344 9.84375 z"/>
<path d="m 7.9765625,3.0957031 c -1.565544,0 -2.8457031,1.2801591 -2.8457031,2.8457031 0,1.5655441 1.2801591,2.8457032 2.8457031,2.8457032 1.565544,0 2.8457035,-1.2801591 2.8457035,-2.8457032 0,-1.565544 -1.2801595,-2.8457031 -2.8457035,-2.8457031 z m 0,1 c 1.0251045,0 1.8457031,0.8205987 1.8457031,1.8457031 0,1.0251045 -0.8205986,1.8457032 -1.8457031,1.8457032 -1.0251045,0 -1.8457031,-0.8205987 -1.8457031,-1.8457032 0,-1.0251044 0.8205986,-1.8457031 1.8457031,-1.8457031 z"/>
</svg>
