<svg width="16" height="16" xmlns="http://www.w3.org/2000/svg"><circle style="fill:#a04;stroke-width:71.2;stroke-linecap:round;stroke-linejoin:round;stroke-miterlimit:2;paint-order:stroke markers fill" cx="8" cy="8" r="8"/><path d="m2,6.28c0,.5.24.94.62,1.22v.03C2.25,7.8,2,8.25,2,8.75v2.62c0,.94.76,1.7,1.69,1.7.94,0,1.7-.76,1.7-1.7V8.74c0-.5-.24-.94-.63-1.22v-.03c.39-.27.63-.72.63-1.22V4.62c0-.93-.76-1.69-1.7-1.69C2.76,2.93,2,3.69,2,4.62zm1.69,5.51c-.23,0-.41-.2-.41-.43V8.57c0-.23.19-.41.41-.41.24,0,.43.19.43.41v2.79c0,.23-.19.43-.43.43zm0-4.91c-.23,0-.41-.19-.41-.43V4.62c0-.23.19-.41.41-.41.24,0,.43.19.43.41v1.83c0,.24-.19.43-.43.43zm2.62,1.27c0,.34.29.63.63.63.36,0,.64-.29.64-.63,0-.24.19-.43.41-.43.24,0,.43.19.43.43v3.2c0,.23-.19.43-.43.43-.23,0-.41-.2-.41-.43v-.7c0-.36-.29-.64-.64-.64-.34,0-.63.29-.63.64v.72c0,.94.76,1.7,1.69,1.7.94,0,1.7-.76,1.7-1.7V8.16c0-.94-.4-1.7-1.27-1.7-.76,0-.84.8-.84.8V4.28h1.47c.36,0,.64-.29.64-.63,0-.36-.29-.63-.64-.63H6.93c-.34,0-.63.27-.63.63zM10.62,11.35c0,.94.76,1.7,1.69,1.7.94,0,1.7-.76,1.7-1.7V4.62c0-.93-.76-1.69-1.7-1.69-.93,0-1.69.76-1.69,1.69zm1.27-6.74c0-.23.19-.41.41-.41.24,0,.43.19.43.41v6.74c0,.23-.19.43-.43.43-.23,0-.41-.2-.41-.43z" fill="#fff"/></svg>