<svg width="16" height="16" xmlns="http://www.w3.org/2000/svg"><circle style="fill:#660080;stroke-width:71.2;stroke-linecap:round;stroke-linejoin:round;stroke-miterlimit:2;paint-order:stroke markers fill" cx="8" cy="8" r="8"/><path d="m4.12,11.36c0,.23-.19.43-.43.43-.23,0-.41-.2-.41-.43v-.71c0-.36-.29-.64-.64-.64-.34,0-.63.29-.63.64v.72c0,.94.76,1.7,1.69,1.7.94,0,1.7-.76,1.7-1.7V4.62c0-.93-.76-1.69-1.7-1.69-.93,0-1.69.76-1.69,1.69v2.39c0,.94.39,1.7,1.27,1.7.76,0,.84-.8.84-.8zm0-4.35c0,.24-.19.43-.43.43-.23,0-.41-.19-.41-.43V4.62c0-.23.19-.41.41-.41.24,0,.43.19.43.41zm5.58-1.4c0-.36-.29-.63-.64-.63-.34,0-.63.27-.63.63V7.2h-.84V3.59c0-.34-.29-.63-.64-.63-.34,0-.63.29-.63.63v4.25c0,.34.29.63.63.63h1.49v3.92c0,.36.29.64.63.64.36,0,.64-.29.64-.64zm.92,5.75c0,.94.76,1.7,1.69,1.7.94,0,1.7-.76,1.7-1.7V4.62c0-.93-.76-1.69-1.7-1.69-.93,0-1.69.76-1.69,1.69zm1.27-6.74c0-.23.19-.41.41-.41.24,0,.43.19.43.41v6.74c0,.23-.19.43-.43.43-.23,0-.41-.2-.41-.43z" fill="#fff"/></svg>